<svg width="55" height="54" viewBox="0 0 55 54" fill="none" xmlns="http://www.w3.org/2000/svg">
<g clip-path="url(#clip0)">
<path d="M27.58 53.7645C42.4266 53.7645 54.4622 41.7289 54.4622 26.8823C54.4622 12.0356 42.4266 0 27.58 0C12.7333 0 0.697693 12.0356 0.697693 26.8823C0.697693 41.7289 12.7333 53.7645 27.58 53.7645Z" fill="black"/>
<path d="M45.5122 26.8811C45.4846 26.1245 45.2386 25.3919 44.804 24.7719C44.3694 24.1518 43.7648 23.6707 43.0629 23.3866C42.3611 23.1024 41.592 23.0274 40.8484 23.1704C40.1049 23.3135 39.4186 23.6686 38.8723 24.1929C35.8142 22.1141 32.2195 20.9657 28.5226 20.8864L30.27 12.4991L36.0228 13.7088C36.0912 14.3445 36.3839 14.9351 36.8485 15.3744C37.313 15.8137 37.9189 16.0731 38.5575 16.106C39.196 16.1388 39.8254 15.943 40.3325 15.5537C40.8397 15.1643 41.1915 14.607 41.3248 13.9816C41.4581 13.3563 41.3641 12.7039 41.0597 12.1416C40.7553 11.5793 40.2605 11.1439 39.6641 10.9136C39.0676 10.6832 38.4086 10.673 37.8053 10.8848C37.202 11.0965 36.6939 11.5164 36.3723 12.069L29.7861 10.7518C29.6784 10.7281 29.5671 10.7261 29.4586 10.7458C29.3501 10.7656 29.2466 10.8066 29.154 10.8666C29.0615 10.9266 28.9818 11.0044 28.9196 11.0954C28.8574 11.1865 28.8138 11.289 28.7915 11.397L26.8022 20.7251C23.0598 20.7815 19.4157 21.9308 16.3181 24.0316C15.9037 23.6417 15.4094 23.3465 14.8696 23.1666C14.3298 22.9867 13.7573 22.9263 13.1918 22.9896C12.6264 23.053 12.0814 23.2385 11.5947 23.5333C11.1081 23.8282 10.6914 24.2254 10.3735 24.6973C10.0556 25.1692 9.84407 25.7046 9.75365 26.2664C9.66323 26.8282 9.69605 27.4029 9.84982 27.9508C10.0036 28.4986 10.2747 29.0064 10.6442 29.4391C11.0138 29.8718 11.473 30.2189 11.99 30.4565C11.9598 30.8502 11.9598 31.2456 11.99 31.6393C11.99 37.6609 19.0063 42.5535 27.6624 42.5535C36.3185 42.5535 43.3348 37.6609 43.3348 31.6393C43.365 31.2456 43.365 30.8502 43.3348 30.4565C43.9981 30.1268 44.5546 29.616 44.94 28.9834C45.3253 28.3507 45.5237 27.6218 45.5122 26.8811ZM18.63 29.5694C18.63 29.0377 18.7876 28.5179 19.083 28.0759C19.3784 27.6338 19.7982 27.2892 20.2895 27.0858C20.7807 26.8823 21.3212 26.8291 21.8426 26.9328C22.3641 27.0365 22.8431 27.2925 23.2191 27.6685C23.595 28.0445 23.851 28.5235 23.9548 29.0449C24.0585 29.5664 24.0053 30.1069 23.8018 30.5981C23.5983 31.0893 23.2538 31.5092 22.8117 31.8045C22.3696 32.0999 21.8499 32.2576 21.3182 32.2576C20.9652 32.2576 20.6156 32.1881 20.2895 32.053C19.9633 31.9179 19.667 31.7199 19.4173 31.4702C19.1677 31.2206 18.9697 30.9243 18.8346 30.5981C18.6995 30.272 18.63 29.9224 18.63 29.5694ZM34.2486 36.962C32.3413 38.3993 29.9948 39.1308 27.6086 39.0319C25.2225 39.1308 22.876 38.3993 20.9687 36.962C20.8544 36.8227 20.796 36.6459 20.8048 36.4659C20.8137 36.2859 20.8891 36.1157 21.0165 35.9883C21.144 35.8609 21.3142 35.7854 21.4942 35.7766C21.6741 35.7677 21.851 35.8262 21.9903 35.9405C23.6065 37.126 25.5794 37.7235 27.5818 37.6341C29.5866 37.7431 31.5687 37.1646 33.2002 35.9942C33.3427 35.8552 33.5347 35.7785 33.7339 35.781C33.8325 35.7823 33.9299 35.8029 34.0205 35.8418C34.1111 35.8807 34.1932 35.9371 34.262 36.0077C34.3308 36.0783 34.3851 36.1618 34.4217 36.2533C34.4583 36.3449 34.4764 36.4428 34.4752 36.5414C34.474 36.64 34.4533 36.7374 34.4144 36.828C34.3755 36.9186 34.3192 37.0007 34.2486 37.0695V36.962ZM33.7647 32.3651C33.233 32.3651 32.7133 32.2075 32.2712 31.9121C31.8291 31.6167 31.4846 31.1968 31.2811 30.7056C31.0776 30.2144 31.0244 29.6739 31.1281 29.1524C31.2318 28.631 31.4879 28.152 31.8638 27.776C32.2398 27.4001 32.7188 27.144 33.2402 27.0403C33.7617 26.9366 34.3022 26.9898 34.7934 27.1933C35.2846 27.3968 35.7045 27.7413 35.9999 28.1834C36.2952 28.6255 36.4529 29.1452 36.4529 29.6769C36.4675 30.0411 36.4079 30.4045 36.2776 30.745C36.1474 31.0855 35.9493 31.3959 35.6953 31.6574C35.4414 31.9189 35.1369 32.1261 34.8003 32.2662C34.4638 32.4064 34.1023 32.4766 33.7378 32.4727L33.7647 32.3651Z" fill="white"/>
</g>
<defs>
<clipPath id="clip0">
<rect width="53.7645" height="53.7645" fill="white" transform="translate(0.697693)"/>
</clipPath>
</defs>
</svg>
