<svg width="93" height="47" viewBox="0 0 93 47" fill="none" xmlns="http://www.w3.org/2000/svg">
<path d="M66.3795 14.7611H65.5474H64.9614H64.8911C62.9339 14.7611 60.6192 14.8666 57.9061 14.7611H57.4725C56.8865 14.7611 55.6442 14.6498 55.6266 14.6498L54.7593 14.5736C53.5874 14.474 52.3802 14.3216 51.0969 14.1048L50.1476 13.9408L49.632 13.8646C49.3038 13.8001 47.9209 13.4954 47.6103 13.4192C47.2997 13.343 47.0712 13.2903 46.7958 13.22C46.3036 13.0969 45.8055 12.9563 45.2957 12.8098L44.5925 12.5988C44.1178 12.4641 43.6373 12.3059 43.1451 12.1418L42.2661 11.8429C41.8383 11.6964 41.4106 11.5382 40.9711 11.3741L50.634 4.34229L66.3795 14.7611Z" fill="black"/>
<path d="M27.6051 44.581C26.0425 44.581 24.9057 44.1122 24.1947 43.1747C23.4837 42.2371 23.1204 40.7584 23.1047 38.7387V35.8088C23.1047 33.7461 23.4681 32.2519 24.1947 31.326C24.9213 30.4001 26.0816 29.9372 27.6754 29.9372C28.6803 29.8813 29.6755 30.1594 30.5058 30.7283C30.8276 30.9439 31.0969 31.2291 31.2937 31.5628C31.4905 31.8965 31.6097 32.2702 31.6426 32.6562C31.6492 32.6888 31.6668 32.7182 31.6923 32.7395C31.7179 32.7608 31.75 32.7727 31.7832 32.7734H34.2209C34.2598 32.7734 34.297 32.758 34.3245 32.7305C34.352 32.703 34.3674 32.6657 34.3674 32.6269C34.3576 31.456 33.8981 30.3336 33.0841 29.4919C31.9356 28.2027 30.0839 27.5581 27.529 27.5581C25.1616 27.5581 23.3684 28.2496 22.1496 29.6325C20.9307 31.0154 20.3233 33.0781 20.3272 35.8205V39.3013C20.3272 41.8406 20.9366 43.7528 22.1554 45.0381C23.3743 46.3234 25.1694 46.968 27.5407 46.9719C30.4003 46.9719 32.3712 46.1632 33.4533 44.5459C33.7764 44.0871 34.0311 43.5837 34.2092 43.0516C34.3474 42.5137 34.4163 41.9604 34.4143 41.405C34.4143 41.3671 34.3997 41.3307 34.3735 41.3034C34.3473 41.2761 34.3115 41.26 34.2737 41.2585H31.7891C31.7558 41.2591 31.7238 41.2711 31.6982 41.2924C31.6726 41.3137 31.6551 41.3431 31.6484 41.3757C31.2675 43.3329 29.9549 44.581 27.6051 44.581Z" fill="black"/>
<path d="M76.1118 30.0621C76.1491 30.0621 76.1849 30.0473 76.2112 30.0209C76.2376 29.9946 76.2524 29.9588 76.2524 29.9215V27.7006C76.2533 27.6819 76.2502 27.6633 76.2434 27.6458C76.2366 27.6284 76.2263 27.6125 76.2131 27.5993C76.1999 27.5861 76.184 27.5758 76.1666 27.569C76.1491 27.5622 76.1305 27.5591 76.1118 27.56H72.0099V23.0186C72.0099 22.9813 71.9951 22.9455 71.9687 22.9191C71.9423 22.8927 71.9065 22.8779 71.8692 22.8779L69.3729 23.6397C69.3356 23.6397 69.2999 23.6545 69.2735 23.6809C69.2471 23.7073 69.2323 23.743 69.2323 23.7803V27.56H66.5075C66.4702 27.56 66.4344 27.5748 66.408 27.6012C66.3816 27.6275 66.3668 27.6633 66.3668 27.7006V29.9215C66.3668 29.9588 66.3816 29.9946 66.408 30.0209C66.4344 30.0473 66.4702 30.0621 66.5075 30.0621H69.2323V41.7819C69.2323 43.3992 69.5956 44.5829 70.3222 45.333C71.0489 46.083 72.2189 46.4659 73.8323 46.4815H76.1176C76.1549 46.4815 76.1907 46.4667 76.2171 46.4403C76.2435 46.4139 76.2583 46.3782 76.2583 46.3409V44.161C76.2583 44.1237 76.2435 44.0879 76.2171 44.0615C76.1907 44.0352 76.1549 44.0203 76.1176 44.0203H74.0784C73.7899 44.0521 73.4981 44.0156 73.2263 43.9138C72.9545 43.812 72.7105 43.6478 72.5138 43.4344C72.1432 42.8157 71.9771 42.096 72.0392 41.3775V30.0621H76.1118Z" fill="black"/>
<path d="M51.1034 32.6152C51.0908 32.3748 51.0495 32.1367 50.9804 31.9061C50.737 31.0728 50.3241 30.2987 49.7674 29.6325C48.5485 28.2496 46.7554 27.5581 44.388 27.5581C41.8331 27.5581 39.9794 28.2027 38.827 29.4919C38.0473 30.34 37.6272 31.4576 37.655 32.6093C37.655 32.6482 37.6705 32.6854 37.6979 32.7129C37.7254 32.7404 37.7627 32.7558 37.8015 32.7558H40.2392C40.2733 32.7549 40.306 32.7421 40.3317 32.7196C40.3574 32.6972 40.3744 32.6664 40.3799 32.6328C40.3961 32.252 40.4996 31.8802 40.6825 31.5459C40.8654 31.2116 41.1228 30.9238 41.4346 30.7049C42.2676 30.1371 43.2642 29.8592 44.2708 29.9138C45.8647 29.9138 47.025 30.3767 47.7516 31.3026C48.0863 31.743 48.2894 32.2692 48.3376 32.8203C48.3376 33.0136 48.3376 33.2129 48.3376 33.4063V35.4807C47.6109 35.3869 46.8843 35.3166 46.1577 35.2697C45.4311 35.2228 44.8334 35.1994 44.3646 35.1994C41.8058 35.1994 39.9287 35.6799 38.7332 36.6409C37.5378 37.6019 36.9401 39.1274 36.9401 41.2175C36.9401 43.1708 37.5085 44.5947 38.6453 45.4893C39.6474 46.2628 41.7511 46.6613 43.8724 46.7785C44.4317 46.8029 44.992 46.7833 45.5483 46.7199C47.336 46.5649 49.0976 46.1889 50.7929 45.6007C50.8834 45.5737 50.9631 45.5191 51.0209 45.4445C51.0788 45.3698 51.1117 45.2789 51.1152 45.1846V33.3594C51.1327 33.0898 51.121 32.8379 51.1034 32.6152ZM41.3819 43.9423C41.0781 43.841 40.8004 43.674 40.5685 43.4532C40.3366 43.2325 40.1561 42.9633 40.04 42.6649C39.8732 42.197 39.7937 41.7024 39.8056 41.2058C39.8056 39.8892 40.1513 38.9497 40.8428 38.3871C41.5343 37.8246 42.7844 37.5433 44.5931 37.5433C44.9857 37.5433 47.3238 37.7426 48.1969 37.8422C48.2405 37.8466 48.2808 37.867 48.31 37.8995C48.3393 37.932 48.3554 37.9742 48.3552 38.018V43.5263C48.3551 43.5646 48.3433 43.6021 48.3213 43.6335C48.2993 43.6649 48.2681 43.6889 48.2321 43.7021C46.0369 44.5316 43.6298 44.616 41.3819 43.9423Z" fill="black"/>
<path d="M92.6623 32.6157C92.644 32.3827 92.5988 32.1526 92.5275 31.9301C92.2842 31.0967 91.8712 30.3226 91.3146 29.6564C90.0957 28.2735 88.3026 27.582 85.9352 27.582C83.3725 27.582 81.5188 28.2266 80.3742 29.5158C79.5945 30.3639 79.1744 31.4815 79.2022 32.6332C79.2022 32.6721 79.2176 32.7094 79.2451 32.7368C79.2726 32.7643 79.3098 32.7797 79.3487 32.7797H81.7864C81.8205 32.7788 81.8532 32.766 81.8789 32.7435C81.9046 32.7211 81.9216 32.6904 81.927 32.6567C81.9432 32.276 82.0468 31.9041 82.2297 31.5698C82.4126 31.2355 82.6699 30.9477 82.9818 30.7288C83.8144 30.1603 84.8113 29.8822 85.818 29.9377C87.4119 29.9377 88.5721 30.4006 89.2988 31.3265C89.636 31.7655 89.8395 32.2925 89.8847 32.8442C89.8847 33.0376 89.914 33.2368 89.914 33.4302V35.5046C89.1874 35.4108 88.4608 35.3405 87.7342 35.2936C87.0075 35.2467 86.404 35.2233 85.9352 35.2233C83.3803 35.2233 81.5051 35.7038 80.3097 36.6648C79.1143 37.6259 78.5185 39.1514 78.5224 41.2414C78.5224 43.1947 79.0909 44.6186 80.2277 45.5132C81.2297 46.2867 83.3334 46.6852 85.4547 46.8024C86.014 46.8268 86.5744 46.8072 87.1306 46.7438C88.9183 46.5888 90.6799 46.2128 92.3752 45.6246C92.4657 45.5977 92.5455 45.543 92.6033 45.4684C92.6611 45.3938 92.694 45.3029 92.6975 45.2085V33.3599C92.6916 33.0903 92.6799 32.8383 92.6623 32.6157ZM82.9408 43.9428C82.637 43.8415 82.3593 43.6745 82.1274 43.4537C81.8954 43.2329 81.715 42.9638 81.5989 42.6653C81.432 42.1974 81.3526 41.7029 81.3645 41.2062C81.3645 39.8897 81.7102 38.9502 82.4017 38.3876C83.0931 37.8251 84.3433 37.5438 86.152 37.5438C86.5446 37.5438 88.8827 37.743 89.7558 37.8427C89.7988 37.8483 89.8384 37.869 89.8675 37.9013C89.8965 37.9335 89.913 37.9751 89.914 38.0185V43.5267C89.9124 43.5647 89.9 43.6015 89.8782 43.6326C89.8564 43.6638 89.8261 43.688 89.791 43.7025C87.5958 44.532 85.1887 44.6165 82.9408 43.9428Z" fill="black"/>
<path d="M64.0001 30.2721C64.0348 30.2705 64.0676 30.2557 64.0917 30.2306C64.1157 30.2055 64.1291 30.172 64.129 30.1373V30.0318V27.6937C64.129 27.2249 60.912 27.9457 60.6131 28.0394C59.9375 28.192 59.3028 28.4888 58.7526 28.9096C58.2023 29.3303 57.7496 29.8651 57.4253 30.4772V28.2563C57.4253 28.2363 57.4214 28.2164 57.4137 28.198C57.4061 28.1795 57.3949 28.1627 57.3807 28.1485C57.3666 28.1344 57.3498 28.1232 57.3313 28.1155C57.3128 28.1078 57.293 28.1039 57.273 28.1039H54.8529C54.8125 28.1039 54.7737 28.12 54.7451 28.1485C54.7166 28.1771 54.7005 28.2159 54.7005 28.2563V46.3398C54.7005 46.3808 54.7163 46.4202 54.7448 46.4497C54.7732 46.4792 54.8119 46.4965 54.8529 46.498H57.3492C57.3901 46.4965 57.4289 46.4792 57.4573 46.4497C57.4857 46.4202 57.5015 46.3808 57.5015 46.3398V36.2081C57.4751 35.0176 57.7153 33.8363 58.2047 32.7508C58.5122 32.0636 59.0029 31.4743 59.6231 31.0474C60.2432 30.6205 60.9689 30.3725 61.7206 30.3307C62.2629 30.2625 62.809 30.2292 63.3555 30.231L64.0001 30.2721Z" fill="black"/>
<path d="M64.9918 15.8697C27.6059 27.3433 0 15.8697 0 15.8697L20.5681 0.973877C28.3735 6.69897 35.1592 10.2501 40.9722 12.4416C41.4117 12.6057 41.8395 12.7639 42.2673 12.9104L43.1462 13.2093C43.6385 13.3734 44.119 13.5316 44.5936 13.6664L45.2968 13.8773C45.8066 14.0238 46.3047 14.1644 46.7969 14.2875C47.0724 14.3578 47.3419 14.4281 47.6115 14.4867C47.881 14.5453 49.9964 15.0024 50.1781 15.0376L51.1274 15.2016C52.4107 15.4185 53.6296 15.5708 54.7898 15.6704L55.6571 15.7466C55.6571 15.7466 56.9169 15.8345 57.5029 15.858H57.9366C60.6497 15.9576 62.9643 15.858 64.9215 15.858L64.9918 15.8697Z" fill="black"/>
</svg>
