<svg width="87" height="32" viewBox="0 0 87 32" fill="none" xmlns="http://www.w3.org/2000/svg">
<g clip-path="url(#clip0)">
<path fill-rule="evenodd" clip-rule="evenodd" d="M11.7021 2.209C6.10508 8.76417 0.740312 16.889 0.683661 22.9586C0.661001 25.2453 1.39179 27.2384 3.14794 28.7515C5.67454 30.9253 8.45606 31.6932 11.2263 31.6988C15.2767 31.7045 19.2932 30.0784 22.443 28.8193C27.7454 26.7076 86.3387 1.34514 86.3387 1.34514C86.9052 1.06283 86.7975 0.712774 86.0894 0.887804C85.8062 0.961204 22.3014 18.1085 22.3014 18.1085C21.0777 18.453 19.8257 18.628 18.6078 18.6336C13.7245 18.6619 9.38512 15.963 9.41911 10.2717C9.43611 8.05276 10.1159 5.37084 11.7021 2.209Z" fill="#231F20"/>
</g>
<defs>
<clipPath id="clip0">
<rect width="86.0232" height="30.8562" fill="white" transform="translate(0.683136 0.844971)"/>
</clipPath>
</defs>
</svg>
