<svg width="139" height="36" viewBox="0 0 139 36" fill="none" xmlns="http://www.w3.org/2000/svg">
<g clip-path="url(#clip0)">
<path d="M43.8902 27.9758L45.5817 24.0224C47.4336 25.3939 49.8492 26.1198 52.2653 26.1198C54.037 26.1198 55.1642 25.4343 55.1642 24.3856C55.1238 21.4809 44.4943 23.74 44.4134 16.4373C44.373 12.7259 47.675 9.86164 52.3461 9.86164C55.1238 9.86164 57.9026 10.5477 59.8752 12.1213L58.2947 16.159C56.4797 14.9919 54.2379 14.1782 52.1042 14.1782C50.6547 14.1782 49.6881 14.8637 49.6881 15.7518C49.7285 18.6161 60.4394 17.0425 60.5601 24.0224C60.5601 27.8146 57.3384 30.4774 52.7481 30.4774C49.3664 30.4774 46.266 29.6706 43.8897 27.9758H43.8902ZM111.24 22.5908C110.813 23.3494 110.192 23.9808 109.44 24.4202C108.689 24.8596 107.834 25.0912 106.963 25.0913C104.25 25.0913 102.051 22.8877 102.051 20.1695C102.051 17.4513 104.25 15.2477 106.963 15.2477C107.834 15.2478 108.689 15.4794 109.44 15.9188C110.192 16.3582 110.813 16.9896 111.24 17.7482L115.942 15.138C114.181 11.9902 110.821 9.86164 106.963 9.86164C101.282 9.86164 96.6757 14.4762 96.6757 20.1695C96.6757 25.8622 101.282 30.4774 106.963 30.4774C110.821 30.4774 114.181 28.3488 115.942 25.201L111.24 22.5908ZM63.6115 30.0737H69.4901V1.28101H63.612L63.6115 30.0737ZM118.911 1.28101V30.0737H124.789V21.4474L131.755 30.0737H139.269L130.411 19.8259L138.625 10.2636H131.433L124.789 18.2136V1.28101H118.911ZM87.6013 10.2647V12.6052C86.6352 10.9912 84.2595 9.86164 81.7631 9.86164C76.6092 9.86164 72.5426 14.4208 72.5426 20.1493C72.5426 25.8778 76.6092 30.4774 81.7631 30.4774C84.2595 30.4774 86.6352 29.3478 87.6013 27.7338V30.0737H93.48V10.2647H87.6013ZM87.6013 22.6307C86.7559 24.0426 84.9842 25.0907 83.0116 25.0907C80.298 25.0907 78.099 22.8877 78.099 20.1695C78.099 17.4513 80.298 15.2477 83.0116 15.2477C84.9842 15.2477 86.7559 16.3368 87.6013 17.7886V22.6307Z" fill="black"/>
<path d="M12.8455 0.645508C10.9404 0.645508 9.39624 2.19313 9.39624 4.10167C9.39578 4.55509 9.48464 5.00415 9.65773 5.42323C9.83082 5.8423 10.0848 6.22318 10.4051 6.54411C10.7253 6.86505 11.1057 7.11975 11.5244 7.29369C11.9432 7.46762 12.3921 7.55738 12.8455 7.55783H16.2953V4.10167C16.296 3.18591 15.933 2.30733 15.2861 1.65919C14.6391 1.01105 13.7612 0.646426 12.8455 0.645508ZM12.8455 9.86194H3.64693C1.74186 9.86194 0.197701 11.4096 0.197701 13.3187C0.197701 15.2272 1.74186 16.7748 3.64693 16.7748H12.846C14.7505 16.7748 16.2953 15.2272 16.2953 13.3187C16.2953 11.4096 14.7505 9.86194 12.8455 9.86194Z" fill="black"/>
<path d="M34.6913 13.318C34.6913 11.4088 33.1466 9.86121 31.2415 9.86121C29.3364 9.86121 27.7923 11.4088 27.7923 13.318V16.7741H31.2415C32.1573 16.7732 33.0352 16.4086 33.6821 15.7604C34.3291 15.1123 34.6921 14.2337 34.6913 13.318ZM25.4928 13.318V4.10094C25.4935 3.18517 25.1305 2.3066 24.4836 1.65846C23.8366 1.01032 22.9587 0.645694 22.043 0.644775C20.1379 0.644775 18.5937 2.1924 18.5937 4.10094V13.3174C18.5937 15.2271 20.1379 16.7747 22.043 16.7747C22.9587 16.7738 23.8366 16.4091 24.4836 15.761C25.1305 15.1129 25.4935 14.2343 25.4928 13.3185" fill="black"/>
<path d="M22.043 35.2053C22.9587 35.2043 23.8366 34.8397 24.4836 34.1916C25.1305 33.5434 25.4935 32.6649 25.4928 31.7491C25.4935 30.8333 25.1305 29.9548 24.4836 29.3066C23.8366 28.6585 22.9587 28.2939 22.043 28.2929H18.5937V31.7491C18.5937 33.6576 20.1379 35.2053 22.043 35.2053ZM22.043 25.9888H31.2421C33.1466 25.9888 34.6913 24.4412 34.6913 22.5321C34.6921 21.6163 34.3291 20.7378 33.6821 20.0896C33.0352 19.4415 32.1573 19.0768 31.2415 19.0759H22.043C20.1379 19.0759 18.5937 20.6236 18.5937 22.5321C18.5933 22.9855 18.6821 23.4346 18.8552 23.8536C19.0283 24.2727 19.2823 24.6536 19.6026 24.9745C19.9228 25.2955 20.3032 25.5502 20.7219 25.7241C21.1407 25.898 21.5896 25.9878 22.043 25.9883" fill="black"/>
<path d="M0.197679 22.5321C0.197224 22.9855 0.28608 23.4346 0.459174 23.8536C0.632268 24.2727 0.88621 24.6536 1.2065 24.9745C1.52679 25.2955 1.90716 25.5502 2.32589 25.7241C2.74461 25.898 3.1935 25.9878 3.64691 25.9883C4.56268 25.9873 5.44058 25.6227 6.08753 24.9746C6.73448 24.3264 7.09749 23.4479 7.09672 22.5321V19.0759H3.64691C1.74184 19.0759 0.197679 20.6236 0.197679 22.5321ZM9.39621 22.5321V31.7485C9.39621 33.6576 10.9404 35.2053 12.8454 35.2053C13.7612 35.2043 14.6391 34.8397 15.2861 34.1916C15.933 33.5434 16.296 32.6649 16.2953 31.7491V22.5321C16.2957 22.0786 16.2068 21.6295 16.0337 21.2104C15.8606 20.7913 15.6066 20.4104 15.2862 20.0894C14.9659 19.7685 14.5854 19.5138 14.1667 19.3399C13.7479 19.166 13.2989 19.0763 12.8454 19.0759C10.9404 19.0759 9.39621 20.6236 9.39621 22.5321Z" fill="black"/>
</g>
<defs>
<clipPath id="clip0">
<rect width="138.593" height="34.6483" fill="white" transform="translate(0.197693 0.558105)"/>
</clipPath>
</defs>
</svg>
