<svg width="176" height="44" viewBox="0 0 176 44" fill="none" xmlns="http://www.w3.org/2000/svg">
<g clip-path="url(#clip0)">
<path fill-rule="evenodd" clip-rule="evenodd" d="M38.1298 0.973883H5.76351C4.33526 0.971663 2.96461 1.53682 1.953 2.54507C0.941393 3.55332 0.371674 4.92208 0.369141 6.35034L0.369141 38.6091C0.369141 41.5781 2.78496 43.9855 5.76351 43.9855H38.1298C39.558 43.9877 40.9287 43.4226 41.9403 42.4143C42.9519 41.4061 43.5216 40.0373 43.5241 38.6091V6.35034C43.5241 3.38134 41.1095 0.973883 38.1298 0.973883ZM27.6994 8.85935C27.6994 8.06841 28.3446 7.42563 29.1391 7.42563C29.9337 7.42563 30.5776 8.06841 30.5776 8.85935V28.0151C30.5776 28.806 29.9325 29.4488 29.1391 29.4488C28.7584 29.4491 28.393 29.2983 28.1233 29.0295C27.8536 28.7607 27.7016 28.3958 27.7006 28.0151V8.85935H27.6994ZM20.5069 8.13412C20.5069 7.34199 21.1521 6.7004 21.9466 6.7004C22.7412 6.7004 23.3863 7.34199 23.3863 8.13412V28.9231C23.3863 29.7152 22.7412 30.3568 21.9466 30.3568C21.5659 30.3571 21.2005 30.2063 20.9308 29.9375C20.6611 29.6687 20.5091 29.3039 20.5081 28.9231V8.13412H20.5069ZM13.3156 8.85935C13.3156 8.06841 13.9608 7.42563 14.7541 7.42563C15.5487 7.42563 16.1926 8.06841 16.1926 8.85935V28.0151C16.1926 28.806 15.5487 29.4488 14.7541 29.4488C14.3734 29.4491 14.008 29.2983 13.7383 29.0295C13.4686 28.7607 13.3166 28.3958 13.3156 28.0151V8.85935ZM6.12314 11.7268C6.12314 10.9347 6.76712 10.2931 7.56164 10.2931C8.35616 10.2931 9.00014 10.9347 9.00014 11.7268V24.6219C9.00014 25.414 8.35497 26.0556 7.56164 26.0556C7.37305 26.0559 7.18624 26.0191 7.01188 25.9472C6.83753 25.8754 6.67903 25.7698 6.54546 25.6367C6.41188 25.5036 6.30583 25.3454 6.23337 25.1713C6.16091 24.9972 6.12345 24.8105 6.12314 24.6219V11.7268ZM37.2683 33.5958C37.0473 33.787 31.7174 38.2423 21.9466 38.2423C12.1758 38.2423 6.84956 33.7858 6.62494 33.5946C6.48178 33.4724 6.36417 33.323 6.27884 33.1552C6.19352 32.9874 6.14217 32.8044 6.12774 32.6167C6.11331 32.429 6.13608 32.2403 6.19475 32.0614C6.25342 31.8825 6.34683 31.717 6.46962 31.5743C6.7179 31.2862 7.06997 31.108 7.4491 31.0785C7.82823 31.0489 8.20366 31.1704 8.49356 31.4166C8.57719 31.487 13.336 35.3748 21.9454 35.3748C30.6625 35.3748 35.3483 31.4584 35.3937 31.4201C35.6833 31.1722 36.0593 31.0492 36.4394 31.0781C36.8194 31.107 37.1726 31.2854 37.4213 31.5743C37.5448 31.7166 37.639 31.8821 37.6982 32.0611C37.7574 32.24 37.7806 32.429 37.7664 32.6169C37.7522 32.8049 37.7008 32.9882 37.6153 33.1562C37.5299 33.3242 37.4119 33.4737 37.2683 33.5958ZM37.7701 24.6231C37.7701 25.414 37.125 26.0568 36.3316 26.0568C36.143 26.0571 35.9562 26.0203 35.7819 25.9484C35.6075 25.8765 35.449 25.771 35.3155 25.6379C35.1819 25.5048 35.0758 25.3466 35.0034 25.1725C34.9309 24.9984 34.8935 24.8117 34.8931 24.6231V11.7268C34.8931 10.9347 35.5371 10.2931 36.3304 10.2931C37.125 10.2931 37.7701 10.9347 37.7701 11.7268V24.6219V24.6231ZM61.5353 28.7964C61.5388 28.9719 61.5069 29.1463 61.4414 29.3091C61.3759 29.4719 61.2782 29.6198 61.1541 29.7438C61.03 29.8679 60.8821 29.9657 60.7193 30.0312C60.5565 30.0967 60.3821 30.1286 60.2067 30.125C59.4468 30.125 58.8996 29.524 58.8996 28.7964V16.1295C58.8996 15.4007 59.448 14.8009 60.2282 14.8009C60.9869 14.8009 61.5353 15.4007 61.5353 16.1295V28.7964ZM78.5762 16.1295V27.7044C78.5762 29.2696 77.7542 30.1477 76.4471 30.1477H76.342C75.0983 30.1477 74.5068 29.4189 73.9799 28.3472L71.3228 23.095L68.9607 17.6731L69.0241 22.9253L69.0444 28.7761C69.0479 28.9516 69.016 29.1259 68.9505 29.2887C68.885 29.4516 68.7873 29.5994 68.6632 29.7235C68.5391 29.8476 68.3912 29.9454 68.2284 30.0109C68.0656 30.0764 67.8912 30.1083 67.7158 30.1047C66.9571 30.1047 66.4087 29.5037 66.4087 28.7761V17.2012C66.4087 15.7639 67.2307 14.7567 68.6668 14.7567H68.7708C70.0993 14.7567 70.6477 15.4855 71.1758 16.5572L73.7912 21.7664L76.0254 26.8263L75.9633 21.9815L75.9418 16.1307C75.9418 15.4019 76.4902 14.8021 77.2703 14.8021C78.029 14.8009 78.5762 15.3995 78.5762 16.1283V16.1295ZM89.1439 28.7761C89.1475 28.9516 89.1156 29.1259 89.0501 29.2887C88.9846 29.4516 88.8869 29.5994 88.7628 29.7235C88.6387 29.8476 88.4908 29.9454 88.328 30.0109C88.1652 30.0764 87.9908 30.1083 87.8154 30.1047C87.0567 30.1047 86.5083 29.5037 86.5083 28.7761V17.3087H83.2382C82.5632 17.3087 82.0148 16.795 82.0148 16.0447C82.0148 15.3159 82.5644 14.8021 83.2382 14.8021H92.4116C93.0867 14.8021 93.6351 15.3159 93.6351 16.0662C93.6351 16.795 93.0867 17.3087 92.4116 17.3087H89.1427V28.7761H89.1439ZM97.0736 28.346V16.4509C97.0736 15.3374 97.6853 14.7161 98.8036 14.7579H106.396C107.071 14.7579 107.619 15.2932 107.619 16.022C107.619 16.7508 107.071 17.2645 106.396 17.2645H99.6901V20.9516H105.616C106.271 20.9516 106.799 21.445 106.799 22.1523C106.799 22.8596 106.271 23.3519 105.616 23.3519H99.6901V27.5957H106.398C107.073 27.5957 107.62 28.1309 107.62 28.8609C107.62 29.5898 107.073 30.1035 106.398 30.1035H98.7415C97.6459 30.1035 97.033 29.4822 97.076 28.3472L97.0736 28.346ZM121.983 30.168C122.722 29.7821 122.953 28.9888 122.595 28.3675L119.959 23.6099C122.131 23.181 123.398 21.5526 123.398 19.3446C123.398 17.0304 121.964 14.7579 118.526 14.7579H113.526C112.408 14.7161 111.797 15.3374 111.797 16.4509V28.7976C111.797 29.5264 112.345 30.1262 113.104 30.1262C113.279 30.1298 113.454 30.0979 113.616 30.0324C113.779 29.9669 113.927 29.8691 114.051 29.745C114.175 29.621 114.273 29.4731 114.339 29.3103C114.404 29.1474 114.436 28.9731 114.432 28.7976L114.411 24.1261H117.195L120.127 29.634C120.485 30.2552 121.265 30.5336 121.982 30.168H121.983ZM118.587 21.7019H114.411V17.2633H118.566C119.958 17.2633 120.738 18.163 120.738 19.4713C120.738 20.7795 120.001 21.7019 118.588 21.7019H118.587ZM128.838 28.9673C127.256 27.5324 126.539 25.2814 126.539 22.4522C126.539 19.6015 127.234 17.3733 128.796 15.9587C129.766 15.1008 131.073 14.5214 132.972 14.5214C134.638 14.5214 135.925 14.9085 136.895 15.7436C137.739 16.4294 138.35 17.3948 138.709 18.7449C138.899 19.4522 138.414 20.1595 137.613 20.31C136.853 20.4378 136.243 19.9456 136.01 19.2383C135.758 18.5525 135.418 18.0603 135.018 17.7162C134.47 17.2227 133.796 17.0089 132.909 17.0089C131.961 17.0089 131.136 17.2872 130.526 17.9085C129.639 18.8082 129.259 20.4175 129.259 22.4522C129.259 24.4678 129.618 26.0748 130.547 26.9744C131.158 27.5957 131.961 27.8741 132.888 27.8741C133.858 27.8741 134.595 27.6184 135.208 27.0389C135.524 26.739 135.8 26.3531 135.988 25.9039C136.263 25.2384 136.832 24.745 137.57 24.917C138.307 25.0891 138.772 25.8167 138.54 26.524C138.159 27.702 137.507 28.6459 136.622 29.2887C135.651 29.996 134.448 30.3616 132.931 30.3616C130.991 30.3616 129.766 29.7821 128.838 28.9685V28.9673ZM148.201 14.5225C143.623 14.5225 141.683 17.6516 141.683 22.4522C141.683 27.4033 143.603 30.3831 148.201 30.3831C152.714 30.3831 154.697 27.4033 154.697 22.4522C154.697 17.5656 152.735 14.5214 148.201 14.5214V14.5225ZM148.18 17.0304C150.689 17.0304 151.997 18.8082 151.997 22.4522C151.997 26.0963 150.667 27.8741 148.18 27.8741C145.67 27.8741 144.403 26.0963 144.403 22.4522C144.403 18.8094 145.711 17.0304 148.18 17.0304ZM175.155 28.7761C175.159 28.9516 175.127 29.1259 175.061 29.2887C174.996 29.4516 174.898 29.5994 174.774 29.7235C174.65 29.8476 174.502 29.9454 174.339 30.0109C174.176 30.0764 174.002 30.1083 173.827 30.1047C173.067 30.1047 172.52 29.5037 172.52 28.7761V23.0317L172.582 17.4366L170.747 23.1177L168.891 28.7116C168.576 29.6973 167.921 30.0844 167.099 30.0844C166.234 30.0844 165.601 29.677 165.264 28.6913L163.365 23.1189L161.614 17.525L161.677 23.0329V28.7773C161.681 28.9528 161.649 29.1271 161.583 29.2899C161.518 29.4528 161.42 29.6006 161.296 29.7247C161.172 29.8488 161.024 29.9466 160.861 30.0121C160.698 30.0776 160.524 30.1095 160.348 30.1059C159.59 30.1059 159.041 29.5049 159.041 28.7773V17.3099C159.041 15.7233 159.885 14.8009 161.362 14.8009C162.754 14.8009 163.534 15.5512 163.976 16.924L165.916 22.7748L167.098 26.7617L168.3 22.7748L170.24 16.924C170.683 15.5512 171.443 14.8021 172.835 14.8021C174.312 14.8021 175.134 15.7018 175.134 17.3111L175.155 28.7761Z" fill="black"/>
</g>
<defs>
<clipPath id="clip0">
<rect width="175.631" height="43.0116" fill="white" transform="translate(0.369141 0.973877)"/>
</clipPath>
</defs>
</svg>
