<svg width="1440" height="641" viewBox="0 0 1440 641" fill="none" xmlns="http://www.w3.org/2000/svg">
<path fill-rule="evenodd" clip-rule="evenodd" d="M753 0V219.18C753 234.269 765.231 246.5 780.32 246.5H976V248.5H780.32C764.127 248.5 751 235.373 751 219.18V0H753Z" fill="white"/>
<path fill-rule="evenodd" clip-rule="evenodd" d="M1440 501L1220.82 501C1205.73 501 1193.5 513.231 1193.5 528.32L1193.5 639.5L1191.5 639.5L1191.5 528.32C1191.5 512.127 1204.63 499 1220.82 499L1440 499L1440 501Z" fill="white"/>
<path fill-rule="evenodd" clip-rule="evenodd" d="M-1 502L104.18 502C119.269 502 131.5 514.231 131.5 529.32L131.5 640.5L133.5 640.5L133.5 529.32C133.5 513.127 120.373 500 104.18 500L-1 500L-1 502Z" fill="white"/>
<path fill-rule="evenodd" clip-rule="evenodd" d="M1131.68 325.5C1146.77 325.5 1159 313.269 1159 298.18V273.82C1159 258.731 1146.77 246.5 1131.68 246.5H1032.19V244.5H1131.68C1147.87 244.5 1161 257.627 1161 273.82V298.18C1161 314.373 1147.87 327.5 1131.68 327.5H996V325.5H1131.68Z" fill="white"/>
<path fill-rule="evenodd" clip-rule="evenodd" d="M1332 0V372.18C1332 387.269 1319.77 399.5 1304.68 399.5H1060V401.5H1304.68C1320.87 401.5 1334 388.373 1334 372.18V0H1332Z" fill="white"/>
<path fill-rule="evenodd" clip-rule="evenodd" d="M753 641V428.82C753 413.731 765.231 401.5 780.32 401.5H900V399.5H780.32C764.127 399.5 751 412.627 751 428.82V641H753Z" fill="white"/>
</svg>
