<svg width="120" height="32" viewBox="0 0 120 32" fill="none" xmlns="http://www.w3.org/2000/svg">
<path fill-rule="evenodd" clip-rule="evenodd" d="M22 5C22 7.41896 20.2822 9.43671 18 9.89998V13.0045C22.3382 13.0458 24.5809 13.382 26.6488 14.464C28.4526 15.4078 29.3468 16.6494 29.7297 18.1975C30.0172 19.3601 30.0085 20.7096 29.9964 22.0993C32.2804 22.5611 34 24.5798 34 27C34 29.7614 31.7614 32 29 32C26.2386 32 24 29.7614 24 27C24 24.5828 25.7152 22.5663 27.9949 22.1011L27.9954 22.0377L27.9954 22.0366C28.0051 20.6371 28.0125 19.5847 27.7882 18.6777C27.5487 17.7092 27.04 16.9259 25.7216 16.236C24.0959 15.3855 22.2708 15.0477 18 15.0048V18.1C20.2822 18.5633 22 20.581 22 23C22 25.7614 19.7614 28 17 28C14.2386 28 12 25.7614 12 23C12 20.581 13.7178 18.5633 16 18.1V15.0048C11.7292 15.0477 9.90412 15.3855 8.27843 16.236C6.96003 16.9259 6.45131 17.7092 6.21182 18.6777C5.98752 19.5847 5.99487 20.6371 6.00464 22.0366L6.00508 22.1011C8.28479 22.5663 10 24.5828 10 27C10 29.7614 7.76142 32 5 32C2.23858 32 0 29.7614 0 27C0 24.5798 1.71958 22.5611 4.00364 22.0993C3.99154 20.7096 3.98281 19.3601 4.27031 18.1975C4.65317 16.6494 5.54737 15.4078 7.35124 14.464C9.41912 13.382 11.6618 13.0458 16 13.0045V9.89998C13.7178 9.43671 12 7.41896 12 5C12 2.23858 14.2386 0 17 0C19.7614 0 22 2.23858 22 5ZM20 5C20 6.65685 18.6569 8 17 8C15.3431 8 14 6.65685 14 5C14 3.34315 15.3431 2 17 2C18.6569 2 20 3.34315 20 5ZM17 26C18.6569 26 20 24.6569 20 23C20 21.3431 18.6569 20 17 20C15.3431 20 14 21.3431 14 23C14 24.6569 15.3431 26 17 26ZM8 27C8 28.6569 6.65685 30 5 30C3.34315 30 2 28.6569 2 27C2 25.3431 3.34315 24 5 24C6.65685 24 8 25.3431 8 27ZM29 30C30.6569 30 32 28.6569 32 27C32 25.3431 30.6569 24 29 24C27.3431 24 26 25.3431 26 27C26 28.6569 27.3431 30 29 30ZM98.6991 20.326C99.3298 19.138 99.6451 17.796 99.6451 16.3C99.6451 14.804 99.3298 13.462 98.6991 12.274C98.0684 11.086 97.1811 10.1547 96.0371 9.47999C94.9078 8.80532 93.6171 8.46799 92.1651 8.46799C90.7131 8.46799 89.4151 8.80532 88.2711 9.47999C87.1418 10.1547 86.2618 11.086 85.6311 12.274C85.0004 13.462 84.6851 14.804 84.6851 16.3C84.6851 17.796 85.0004 19.138 85.6311 20.326C86.2618 21.514 87.1418 22.4453 88.2711 23.12C89.4151 23.7947 90.7131 24.132 92.1651 24.132C93.6171 24.132 94.9078 23.7947 96.0371 23.12C97.1811 22.4453 98.0684 21.514 98.6991 20.326ZM87.8971 19.204C87.4864 18.3387 87.2811 17.3707 87.2811 16.3C87.2811 15.2293 87.4864 14.2687 87.8971 13.418C88.3078 12.5527 88.8798 11.8853 89.6131 11.416C90.3611 10.932 91.2118 10.69 92.1651 10.69C93.1184 10.69 93.9618 10.932 94.6951 11.416C95.4431 11.8853 96.0224 12.5527 96.4331 13.418C96.8438 14.2687 97.0491 15.2293 97.0491 16.3C97.0491 17.3707 96.8438 18.3387 96.4331 19.204C96.0224 20.0547 95.4431 20.722 94.6951 21.206C93.9618 21.6753 93.1184 21.91 92.1651 21.91C91.2118 21.91 90.3611 21.6753 89.6131 21.206C88.8798 20.722 88.3078 20.0547 87.8971 19.204ZM52.562 8.59999H40.528V10.844H45.28V24H47.81V10.844H52.562V8.59999ZM63.4245 13.836C62.5885 13.0147 61.4958 12.604 60.1465 12.604C58.6358 12.604 57.4552 13.1907 56.6045 14.364V8.59999H54.2285V24H56.6045V18.302C56.6045 17.1727 56.8685 16.2853 57.3965 15.64C57.9392 14.98 58.6798 14.65 59.6185 14.65C60.4985 14.65 61.1658 14.9287 61.6205 15.486C62.0898 16.0433 62.3245 16.8573 62.3245 17.928V24H64.7005V17.796C64.7005 15.9773 64.2752 14.6573 63.4245 13.836ZM66.4433 18.39C66.4433 17.2313 66.6707 16.2193 67.1253 15.354C67.5947 14.474 68.24 13.7993 69.0613 13.33C69.8973 12.846 70.8507 12.604 71.9213 12.604C73.0067 12.604 73.96 12.824 74.7813 13.264C75.6173 13.704 76.27 14.3273 76.7393 15.134C77.2233 15.9407 77.4727 16.8867 77.4873 17.972C77.4873 18.2653 77.4653 18.566 77.4213 18.874H68.9293V19.006C68.988 19.9887 69.296 20.766 69.8533 21.338C70.4107 21.91 71.1513 22.196 72.0753 22.196C72.8087 22.196 73.4247 22.0273 73.9233 21.69C74.422 21.338 74.752 20.8467 74.9133 20.216H77.2893C77.084 21.36 76.5267 22.2987 75.6173 23.032C74.7227 23.7653 73.6007 24.132 72.2513 24.132C71.078 24.132 70.0513 23.8973 69.1713 23.428C68.306 22.944 67.6313 22.2693 67.1473 21.404C66.678 20.5387 66.4433 19.534 66.4433 18.39ZM75.0673 17.136C74.9647 16.3147 74.6347 15.6767 74.0773 15.222C73.5347 14.7527 72.8453 14.518 72.0093 14.518C71.232 14.518 70.5573 14.76 69.9853 15.244C69.428 15.7133 69.1053 16.344 69.0173 17.136H75.0673ZM107.849 12.736V14.958H106.793C105.81 14.958 105.099 15.2807 104.659 15.926C104.219 16.5567 103.999 17.3633 103.999 18.346V24H101.623V12.736H103.735L103.999 14.43C104.322 13.902 104.74 13.4913 105.253 13.198C105.766 12.89 106.456 12.736 107.321 12.736H107.849ZM119.754 23.538V12.736H117.686L117.422 14.496C117.041 13.9093 116.542 13.4473 115.926 13.11C115.31 12.7727 114.577 12.604 113.726 12.604C112.714 12.604 111.805 12.846 110.998 13.33C110.192 13.7993 109.554 14.4667 109.084 15.332C108.63 16.1973 108.402 17.1947 108.402 18.324C108.402 19.4973 108.63 20.5167 109.084 21.382C109.539 22.2327 110.17 22.8927 110.976 23.362C111.783 23.8167 112.7 24.044 113.726 24.044C115.354 24.044 116.579 23.428 117.4 22.196V23.45C117.4 25.5473 116.322 26.596 114.166 26.596C113.33 26.596 112.648 26.42 112.12 26.068C111.592 25.7307 111.255 25.2467 111.108 24.616H108.688C108.791 25.8627 109.319 26.8233 110.272 27.498C111.226 28.1873 112.465 28.532 113.99 28.532C115.956 28.532 117.408 28.092 118.346 27.212C119.285 26.3467 119.754 25.122 119.754 23.538ZM116.498 21.03C115.897 21.7047 115.105 22.042 114.122 22.042C113.14 22.042 112.348 21.6973 111.746 21.008C111.145 20.3187 110.844 19.424 110.844 18.324C110.844 17.224 111.145 16.3293 111.746 15.64C112.348 14.9507 113.14 14.606 114.122 14.606C115.105 14.606 115.897 14.958 116.498 15.662C117.1 16.3513 117.4 17.2533 117.4 18.368C117.4 19.4533 117.1 20.3407 116.498 21.03Z" fill="#0A0A0B"/>
</svg>
