<svg width="34" height="32" viewBox="0 0 34 32" fill="none" xmlns="http://www.w3.org/2000/svg">
<path fill-rule="evenodd" clip-rule="evenodd" d="M17.9916 9.89998C20.2549 9.43671 21.9583 7.41896 21.9583 5C21.9583 2.23857 19.7383 0 16.9999 0C14.2616 0 12.0416 2.23857 12.0416 5C12.0416 7.41896 13.745 9.43671 16.0083 9.89999V13.0045C11.7062 13.0457 9.48223 13.3821 7.43159 14.464C5.64275 15.4078 4.75599 16.6494 4.37632 18.1975C4.09122 19.3601 4.09988 20.7096 4.11187 22.0993C1.84686 22.5611 0.141602 24.5798 0.141602 27C0.141602 29.7614 2.36152 32 5.09994 32C7.83835 32 10.0583 29.7614 10.0583 27C10.0583 24.5829 8.35735 22.5663 6.09664 22.101C6.08887 20.9678 6.02947 19.7875 6.30165 18.6777C6.53916 17.7093 7.04362 16.9258 8.35105 16.236C9.96319 15.3855 11.773 15.0477 16.0083 15.0048V18.1C13.745 18.5633 12.0416 20.581 12.0416 23C12.0416 25.7614 14.2616 28 16.9999 28C19.7383 28 21.9583 25.7614 21.9583 23C21.9583 20.581 20.2549 18.5633 17.9916 18.1V15.0048C22.2269 15.0477 24.0367 15.3855 25.6489 16.236C26.9563 16.9258 27.4607 17.7093 27.6983 18.6777C27.9718 19.7937 27.9094 20.9616 27.9033 22.101C25.6425 22.5663 23.9416 24.5829 23.9416 27C23.9416 29.7614 26.1616 32 28.8999 32C31.6383 32 33.8583 29.7614 33.8583 27C33.8583 24.5798 32.1531 22.5611 29.888 22.0993C29.9 20.7096 29.9086 19.3601 29.6236 18.1975C29.2439 16.6494 28.3572 15.4078 26.5683 14.464C24.5177 13.3821 22.2936 13.0457 17.9916 13.0045V9.89998ZM16.9999 8C18.6429 8 19.9749 6.65686 19.9749 5C19.9749 3.34314 18.6429 2 16.9999 2C15.3569 2 14.0249 3.34314 14.0249 5C14.0249 6.65686 15.3569 8 16.9999 8ZM19.9749 23C19.9749 24.6568 18.6429 26 16.9999 26C15.3569 26 14.0249 24.6568 14.0249 23C14.0249 21.3432 15.3569 20 16.9999 20C18.6429 20 19.9749 21.3432 19.9749 23ZM5.09994 30C6.74298 30 8.07493 28.6568 8.07493 27C8.07493 25.3432 6.74298 24 5.09994 24C3.45688 24 2.12493 25.3432 2.12493 27C2.12493 28.6568 3.45688 30 5.09994 30ZM31.8749 27C31.8749 28.6568 30.5429 30 28.8999 30C27.2569 30 25.9249 28.6568 25.9249 27C25.9249 25.3432 27.2569 24 28.8999 24C30.5429 24 31.8749 25.3432 31.8749 27Z" fill="#0A0A0B"/>
</svg>
